<svg version="1.1" xmlns="http://www.w3.org/2000/svg" xmlns:xlink="http://www.w3.org/1999/xlink" width="173.99866" height="182.54383" viewBox="0,0,173.99866,182.54383"><g transform="translate(-169.31204,-75.47828)"><g data-paper-data="{&quot;isPaintingLayer&quot;:true}" fill-rule="nonzero" stroke="none" stroke-linecap="butt" stroke-linejoin="miter" stroke-miterlimit="10" stroke-dasharray="" stroke-dashoffset="0" style="mix-blend-mode: normal"><g fill="#00ffe4"><path d="M208.62006,83.07812c0,0 19.34956,8.86909 37.66647,31.56971c20.07582,21.86111 24.63873,36.62922 24.63873,36.62922l-62.3052,-1.68392z" stroke-width="0"/><path d="M169.50262,258.02211c0,0 -2.16678,-21.17477 8.11167,-48.47279c8.663,-28.38836 19.07826,-39.80938 19.07826,-39.80938l30.14047,54.55571z" stroke-width="0"/><path d="M338.79531,202.16131c0,0 -17.27239,12.43908 -46.05916,17.14535c-28.92612,6.65026 -44.01988,3.31922 -44.01988,3.31922l32.25303,-53.334z" stroke-width="0"/><path d="M185.5,180c0,-30.09952 24.40048,-54.5 54.5,-54.5c30.09952,0 54.5,24.40048 54.5,54.5c0,30.09952 -24.40048,54.5 -54.5,54.5c-30.09952,0 -54.5,-24.40048 -54.5,-54.5z" stroke-width="NaN"/></g><g><path d="M213.13546,75.47828c0,0 19.34956,8.86909 37.66647,31.56971c20.07582,21.86111 24.63873,36.62922 24.63873,36.62922l-62.3052,-1.68392z" fill="#00c5ff" stroke-width="0"/><path d="M174.01801,250.42226c0,0 -2.16678,-21.17477 8.11167,-48.47279c8.663,-28.38836 19.07826,-39.80938 19.07826,-39.80938l30.14047,54.55571z" fill="#00c5ff" stroke-width="0"/><path d="M343.3107,194.56147c0,0 -17.27239,12.43908 -46.05916,17.14535c-28.92612,6.65026 -44.01988,3.31922 -44.01988,3.31922l32.25303,-53.334z" fill="#00c5ff" stroke-width="0"/><g><path d="M190.01539,172.40016c0,-30.09952 24.40048,-54.5 54.5,-54.5c30.09952,0 54.5,24.40048 54.5,54.5c0,30.09952 -24.40048,54.5 -54.5,54.5c-30.09952,0 -54.5,-24.40048 -54.5,-54.5z" fill="#00c5ff" stroke-width="NaN"/><path d="M224.19384,172.40016c0,-11.22329 9.09827,-20.32155 20.32155,-20.32155c11.22329,0 20.32155,9.09827 20.32155,20.32155c0,11.22329 -9.09827,20.32155 -20.32155,20.32155c-11.22329,0 -20.32155,-9.09827 -20.32155,-20.32155z" fill="#ffffff" stroke-width="NaN"/></g></g></g></g></svg>