<svg version="1.1" xmlns="http://www.w3.org/2000/svg" xmlns:xlink="http://www.w3.org/1999/xlink" width="173.36014" height="177.36703" viewBox="0,0,173.36014,177.36703"><g transform="translate(-166.51031,-81.43575)"><g data-paper-data="{&quot;isPaintingLayer&quot;:true}" fill-rule="nonzero" stroke="none" stroke-linecap="butt" stroke-linejoin="miter" stroke-miterlimit="10" stroke-dasharray="" stroke-dashoffset="0" style="mix-blend-mode: normal"><path d="M185.50001,180c0,-30.09952 24.40048,-54.5 54.5,-54.5c30.09952,0 54.5,24.40048 54.5,54.5c0,30.09952 -24.40048,54.5 -54.5,54.5c-30.09952,0 -54.5,-24.40048 -54.5,-54.5z" fill="#00c5ff" stroke-width="NaN"/><path d="M219.67846,180c0,-11.22329 9.09827,-20.32155 20.32155,-20.32155c11.22329,0 20.32155,9.09827 20.32155,20.32155c0,11.22329 -9.09827,20.32155 -20.32155,20.32155c-11.22329,0 -20.32155,-9.09827 -20.32155,-20.32155z" fill="#ffffff" stroke-width="NaN"/><path d="M209.2106,81.43575c0,0 19.34956,8.86909 37.66647,31.56971c20.07582,21.86111 24.63873,36.62922 24.63873,36.62922l-62.3052,-1.68392z" fill="#00c5ff" stroke-width="0"/><path d="M166.70089,258.80278c0,0 -2.16678,-21.17477 8.11167,-48.47279c8.663,-28.38836 19.07826,-39.80938 19.07826,-39.80938l30.14047,54.55571z" fill="#00c5ff" stroke-width="0"/><path d="M339.87045,201.48816c0,0 -17.27239,12.43908 -46.05916,17.14535c-28.92612,6.65026 -44.01988,3.31922 -44.01988,3.31922l32.25303,-53.334z" fill="#00c5ff" stroke-width="0"/></g></g></svg>